<svg xmlns="http://www.w3.org/2000/svg" viewBox="0 0 625.9 155.78"><defs><style>.cls-1{fill:#fff;}</style></defs><g id="Layer_2" data-name="Layer 2"><g id="Layer_1-2" data-name="Layer 1"><path class="cls-1" d="M.05,154.79A18.41,18.41,0,0,0,1,149.92c1.31-8.39,2.56-16.79,3.81-25.18C6,116.5,7.23,108.25,8.47,100S11,83.63,12.2,75.43c1.09-7.21,2.14-14.43,3.23-21.64,1.24-8.23,2.51-16.46,3.75-24.7Q20.8,18.4,22.37,7.68c.3-2,.65-4,.91-6,.07-.53.25-.64.74-.64,2.31,0,4.63.05,7,0,.83,0,.79.41.71,1-.5,3.31-1,6.62-1.51,9.93q-1.5,10-3,20L23.92,53.39q-1.64,10.88-3.26,21.76c-1.08,7.17-2.19,14.33-3.27,21.5q-1.74,11.59-3.45,23.18-1.71,11.42-3.44,22.82c-.6,4-1.21,7.95-1.79,11.94-.06.37-.24.77,0,1.16-2.56,0-5.12,0-7.68,0C.18,155.8-.13,155.61.05,154.79Z"/><path class="cls-1" d="M342.29,61.24c-.64,3.5-2.05,6.71-3.15,10q-11.68,35-23.46,70.05c-1.42,4.22-2.88,8.43-4.28,12.66-.22.66-.55.8-1.2.8-9.91,0-19.83,0-29.74,0-1.49,0-.81-.77-.63-1.31q7.07-22,14.16-44Q311.38,55.37,328.7,1.23c.26-.82.64-1,1.43-1Q345.05.67,360,1c.92,0,.91.57,1,1.1q2.55,11.07,5.06,22.13,4.51,19.82,9,39.62,2.81,12.29,5.64,24.57c.1.46,0,1.07.76,1.13A1.42,1.42,0,0,0,383,88.6q8.08-15.72,16.23-31.4,14.34-27.69,28.66-55.39A1.31,1.31,0,0,1,429.3,1q14.08,0,28.18,0c.74,0,1,.13,1,1,.2,7.51.44,15,.68,22.53q.56,17.86,1.13,35.72c.19,6.31.35,12.63.54,18.94q.56,18.21,1.14,36.43.27,9.24.53,18.46c.19,6.6.37,13.19.58,19.78,0,.59.06.94-.75.92-9.88-.35-19.75.21-29.62.05-1.15,0-1.36-.4-1.39-1.41q-.6-19.9-1.26-39.79-.47-13.78-.94-27.56-.36-10.86-.74-21.7c0-.39.21-1-.37-1.13s-.94.27-1.17.65c-.79,1.33-1.53,2.7-2.25,4.08q-20.4,39.14-40.79,78.29c-1.34,2.58-2.71,5.15-4.06,7.72-.22.43-.37.83-1,.78-4.55-.32-9.11.21-13.66.07-.93,0-1.21-.33-1.33-1.15-1.26-8.64-2.92-17.21-4.61-25.76-3.79-19.11-7.6-38.21-13-57a45.67,45.67,0,0,0-3.4-9.16C342.7,61.57,342.63,61.31,342.29,61.24Z"/><path class="cls-1" d="M465.62,154.79,471.71,143c11.75-22.71,23.28-45.52,34.85-68.32Q525.28,37.73,544.21.92A1.47,1.47,0,0,1,545.76,0q24.47,0,48.92,0c.86,0,1.22.19,1.39,1.09,2.23,11.58,4.51,23.15,6.77,34.72q3.66,18.7,7.29,37.42l7.11,36.36q4.25,21.69,8.47,43.39c.35,1.77.37,1.77-1.41,1.77-13.43,0-26.86,0-40.29,0-1,0-1.35-.28-1.52-1.24q-2.36-13.72-5-27.4c-.16-.83-.51-.9-1.17-.89q-24.35,0-48.69,0a1.25,1.25,0,0,0-1.31.92q-5.39,12.16-10.81,24.32c-.51,1.17-1.09,2.31-1.57,3.49a1.12,1.12,0,0,1-1.23.81q-18.78,0-37.54,0ZM563.41,47.14l-.24-.06c-.15.3-.32.61-.46.92L543.58,90.32c-.64,1.43-.5,1.66,1.07,1.63L566,91.64c1.95,0,3.9,0,5.95,0C569.05,76.61,566.23,61.88,563.41,47.14Z"/><path class="cls-1" d="M222.31,154.34q-20.15-.19-40.29-.38c-1,0-1.12-.23-1-1.21,1.21-7.68,2.33-15.37,3.49-23.06,1.4-9.22,2.83-18.43,4.22-27.65,1.25-8.2,2.46-16.41,3.7-24.6s2.51-16.39,3.75-24.59c1.08-7.17,2.12-14.35,3.21-21.53q2-13.07,4-26.12c.19-1.26.42-2.52.52-3.79.07-.91.41-1.17,1.33-1.16q19.9.26,39.81.44t40,.3c1.05,0,1.14.36,1,1.24-.72,5.62-1.43,11.24-2.05,16.87-.1,1-.4,1.14-1.28,1.14-19.27,0-38.54,0-57.81-.06-1.26,0-1.68.34-1.86,1.56-1.5,10.29-3.06,20.58-4.61,30.87-.38,2.48-.74,5-1.17,7.44-.17,1,0,1.28,1.08,1.27,5.08-.07,10.15,0,15.23,0q21,0,42,0c1,0,1.32.23,1.19,1.24-.72,5.58-1.45,11.16-2.05,16.75-.13,1.15-.56,1.28-1.54,1.28q-27.1,0-54.21,0h-2.75c-2.26,0-2.21,0-2.53,2.23q-2.1,14.61-4.25,29.23-1.54,10.65-3.1,21.3c-.09.56.07.72.59.68.2,0,.4,0,.6,0q29,0,57.93,0c1.2,0,1.3.31,1.13,1.4q-1.46,9.17-2.73,18.34c-.12.86-.34,1.11-1.23,1.1-13.47-.18-26.94-.31-40.41-.46Z"/><path class="cls-1" d="M68.36,154.58c-6.43,0-12.87,0-19.3,0-.74,0-.83-.25-.73-.9q2.52-16.62,5-33.23Q56,102.91,58.62,85.35,61.38,67,64.14,48.69,67.08,29.24,70.05,9.8c.43-2.84.88-5.68,1.24-8.52C71.4.43,71.67.15,72.54.13Q83.26-.09,94,.07a169.33,169.33,0,0,1,23.14,1.87A58.09,58.09,0,0,1,153,21.81c9.09,10.4,14.5,22.56,17.16,36a83.1,83.1,0,0,1,1.39,22.64c-1.5,19.14-8.13,36.22-21,50.66-7.81,8.78-17.67,14.4-28.83,17.84a120.25,120.25,0,0,1-23,4.4A293.82,293.82,0,0,1,68.36,154.58ZM92.47,12.52c-2.59,0-5,.07-7.46,0-1,0-1.3.31-1.43,1.2-.71,4.89-1.46,9.77-2.19,14.66Q79.19,43.07,77,57.79c-1.32,8.79-2.68,17.57-4,26.36C71.51,94,70.07,103.78,68.6,113.6c-1.35,9-2.69,18-4.09,27-.13.83.16.95.8,1,1.9.16,3.81.37,5.72.48a151.72,151.72,0,0,0,25.13-.39,83.29,83.29,0,0,0,23.15-5.6c23.21-9.75,35.76-27.59,39-52.24A66.86,66.86,0,0,0,157.68,64a73.07,73.07,0,0,0-11.49-29.21c-6.77-10-15.88-16.63-27.75-19.37A131.6,131.6,0,0,0,92.47,12.52Z"/></g></g></svg>